<svg xmlns="http://www.w3.org/2000/svg" viewBox="0 0 512 512"><defs><style>.cls-1{fill:#3586cb;}.cls-2{fill:#f7bb38;}.cls-3{fill:#d89723;}.cls-4{fill:#e0a632;}.cls-5{fill:#c18421;}.cls-6{fill:#f6c752;}.cls-7{fill:#f4cc71;}.cls-8{fill:#f7d38b;}.cls-9{fill:#e2af40;}.cls-10{fill:#f9dc93;}</style></defs><title>50-Weather-icons</title><g id="BULINE"><circle class="cls-1" cx="256" cy="256.05" r="256"/></g><g id="Icons"><path class="cls-2" d="M62.69,254.59c0,10-27.75,21.79-26.39,31.38,1.4,9.83,31.38,13.4,34.12,22.73,2.78,9.5-20.5,28.68-16.44,37.55s33.86,3.91,39.16,12.13S81.54,391.65,88,399.05s33.57-5.8,41,.64-1.84,35.16,6.44,40.49,30.54-15,39.51-10.9,8.11,34.24,17.61,37c9.33,2.73,25-23.06,34.81-21.66,9.59,1.37,17.38,30.54,27.35,30.54S272.43,446,282,444.64c9.83-1.4,25.48,24.39,34.81,21.66,9.5-2.78,8.74-33,17.61-37s31.29,16.2,39.52,10.9-1-34.07,6.44-40.49,34.55,6.78,41-.64-10.51-32.39-5.18-40.67,35.06-3.15,39.17-12.13-19.23-28.05-16.45-37.55c2.74-9.33,32.72-12.9,34.12-22.73,1.37-9.59-26.39-21.41-26.39-31.38s27.76-21.79,26.39-31.38c-1.4-9.83-31.38-13.4-34.12-22.73-2.78-9.49,20.5-28.68,16.45-37.55S421.51,159,416.21,150.8s11.6-33.26,5.18-40.67-33.57,5.8-41-.64S382.23,74.33,374,69s-30.55,15-39.52,10.91-8.11-34.24-17.61-37c-9.33-2.73-25,23.06-34.81,21.66C272.43,63.17,264.65,34,254.68,34s-17.76,29.17-27.35,30.54c-9.83,1.4-25.48-24.39-34.81-21.66-9.5,2.79-8.73,33-17.61,37S143.62,63.71,135.39,69s1,34.07-6.43,40.49-34.56-6.78-41,.64,10.51,32.39,5.18,40.67S58.08,154,54,162.93,73.2,191,70.42,200.48c-2.74,9.33-32.72,12.9-34.12,22.73C34.94,232.8,62.69,244.62,62.69,254.59Z"/><path class="cls-3" d="M114.18,254.59c0,11.48-17.54,24.77-15.1,35.51,2.52,11.09,24.16,15.45,29,25.45,4.91,10.17-5.11,29.8,1.86,38.53s28.39,3.35,37.16,10.36,8.18,29,18.35,33.94c10,4.83,26.88-9.31,38-6.79,10.74,2.44,19.8,22.56,31.28,22.56S275.22,394,286,391.59c11.08-2.52,28,11.62,38,6.79,10.17-4.91,9.6-27,18.34-33.94s30.15-1.58,37.16-10.36-3.05-28.36,1.86-38.53c4.83-10,26.46-14.36,29-25.45,2.44-10.74-15.1-24-15.1-35.51s17.54-24.77,15.1-35.51c-2.52-11.08-24.15-15.45-29-25.45-4.91-10.17,5.11-29.8-1.86-38.53s-28.38-3.35-37.16-10.36-8.17-29-18.34-33.94c-10-4.83-26.89,9.31-38,6.79C275.22,115.15,266.15,95,254.68,95s-20.54,20.12-31.28,22.56c-11.09,2.52-28-11.62-38-6.79-10.17,4.91-9.61,27-18.35,33.94s-30.15,1.58-37.16,10.36,3.05,28.36-1.86,38.53c-4.82,10-26.46,14.37-29,25.45C96.64,229.82,114.18,243.11,114.18,254.59Z"/><path class="cls-4" d="M273.6,452.1c-6.15,9-12,23.08-18.92,23.08-10,0-17.76-29.17-27.35-30.54-9.83-1.4-25.48,24.39-34.81,21.66-9.49-2.79-8.73-33-17.61-37s-31.29,16.2-39.51,10.9,1-34.06-6.44-40.49-34.56,6.78-41-.64,10.5-32.39,5.18-40.67S58.08,355.22,54,346.25,73.2,318.2,70.42,308.7C67.68,299.37,37.7,295.8,36.3,286c-1.36-9.59,26.4-21.41,26.4-31.38S34.94,232.8,36.3,223.2c1.4-9.83,31.38-13.39,34.12-22.72C73.2,191,49.92,171.8,54,162.93S87.84,159,93.14,150.8,81.54,117.54,88,110.13s33.58,5.8,41-.64S127.12,74.33,135.4,69s30.54,15,39.51,10.9,8.12-34.24,17.6-37,25,23,34.82,21.65C236.92,63.17,244.71,34,254.68,34c6.91,0,12.77,14,18.92,23.08a220.72,220.72,0,0,0,0,395Z"/><path class="cls-5" d="M171.63,347.05a221,221,0,0,0,31.26,49.23c-6.47,2.43-12.73,4.38-17.46,2.1-10.18-4.91-9.61-27-18.35-33.94s-30.15-1.58-37.16-10.36,3.05-28.36-1.86-38.52c-4.82-10-26.46-14.37-29-25.46-2.44-10.74,15.11-24,15.11-35.51s-17.55-24.77-15.11-35.51c2.52-11.09,24.16-15.45,29-25.46,4.91-10.16-5.11-29.78,1.86-38.52s28.39-3.36,37.16-10.36,8.17-29,18.35-33.94c4.73-2.28,11-.33,17.46,2.11a220.83,220.83,0,0,0-31.26,234.14Z"/><circle class="cls-6" cx="254.68" cy="254.59" r="124.28"/><path class="cls-7" d="M378.67,254.59a123.74,123.74,0,0,1-21.47,69.86,124.29,124.29,0,0,1-96.78-194A124.27,124.27,0,0,1,378.67,254.59Z"/><path class="cls-8" d="M379,254.59a123.82,123.82,0,0,1-8.23,44.55,124.32,124.32,0,0,1-99-167.65A124.27,124.27,0,0,1,379,254.59Z"/><path class="cls-9" d="M151.38,254.59a219.75,219.75,0,0,0,20.25,92.46,124.28,124.28,0,0,1,0-184.92A219.57,219.57,0,0,0,151.38,254.59Z"/><circle class="cls-10" cx="332.01" cy="224.1" r="21.72"/><circle class="cls-10" cx="307.82" cy="184.3" r="16.01"/></g></svg>