<svg xmlns="http://www.w3.org/2000/svg" viewBox="0 0 512 512"><defs><style>.cls-1{fill:#7cc8fb;}.cls-2{fill:#f7bb38;}.cls-3{fill:#d89723;}.cls-4{fill:#e0a632;}.cls-5{fill:#c18421;}.cls-6{fill:#f6c752;}.cls-7{fill:#f4cc71;}.cls-8{fill:#f7d38b;}.cls-9{fill:#e2af40;}.cls-10{fill:#f9dc93;}.cls-11{fill:#fffefd;}.cls-12{fill:#caecff;}</style></defs><title>50-Weather-icons</title><g id="BULINE"><circle class="cls-1" cx="256" cy="256" r="256"/></g><g id="Icons"><path class="cls-2" d="M128.05,205.9c0,6.81-19,14.88-18,21.43,1,6.72,21.43,9.15,23.3,15.53s-14,19.58-11.23,25.64,23.13,2.67,26.75,8.29-7.92,22.71-3.53,27.77,22.92-4,28,.44-1.25,24,4.4,27.65,20.86-10.25,27-7.45,5.53,23.39,12,25.29,17.06-15.75,23.77-14.79c6.55.93,11.87,20.85,18.68,20.85s12.13-19.92,18.68-20.85c6.71-1,17.4,16.66,23.77,14.79s6-22.52,12-25.29,21.38,11.07,27,7.45S340,309.38,345,305s23.6,4.63,28-.44-7.18-22.12-3.54-27.77,23.95-2.16,26.75-8.29S383.11,249.34,385,242.86s22.34-8.81,23.3-15.53c.93-6.55-18-14.62-18-21.43s18.95-14.88,18-21.43c-1-6.71-21.43-9.15-23.3-15.52s14-19.59,11.23-25.65-23.13-2.67-26.75-8.28,7.92-22.72,3.54-27.78-22.93,4-28-.43,1.25-24-4.4-27.66-20.86,10.25-27,7.45-5.53-23.38-12-25.28-17.06,15.74-23.77,14.79c-6.55-.94-11.87-20.86-18.68-20.86S247,75.17,240.49,76.11c-6.71,1-17.4-16.66-23.77-14.79s-6,22.51-12,25.28-21.38-11.06-27-7.45.66,23.27-4.4,27.66-23.6-4.64-28,.43,7.18,22.12,3.54,27.78-23.94,2.15-26.75,8.28,13.13,19.16,11.23,25.65S111,177.76,110,184.47C109.1,191,128.05,199.09,128.05,205.9Z"/><path class="cls-3" d="M163.22,205.9c0,7.84-12,16.92-10.31,24.25,1.72,7.57,16.49,10.55,19.79,17.39s-3.49,20.34,1.27,26.31,19.38,2.29,25.38,7.07,5.58,19.83,12.53,23.18,18.35-6.36,25.93-4.64c7.33,1.67,13.52,15.42,21.36,15.42s14-13.75,21.36-15.42c7.58-1.72,19.1,7.94,25.93,4.64S313,285.69,319,280.92s20.59-1.08,25.38-7.07-2.08-19.37,1.27-26.31,18.07-9.82,19.79-17.39c1.67-7.33-10.31-16.41-10.31-24.25s12-16.91,10.31-24.25c-1.72-7.57-16.49-10.55-19.79-17.38s3.49-20.35-1.27-26.32S325,135.67,319,130.88s-5.58-19.83-12.53-23.18-18.35,6.36-25.93,4.64c-7.33-1.67-13.52-15.41-21.36-15.41s-14,13.74-21.36,15.41c-7.58,1.72-19.1-7.94-25.93-4.64s-6.57,18.42-12.53,23.18S178.76,132,174,138s2.08,19.37-1.27,26.32-18.07,9.81-19.79,17.38C151.24,189,163.22,198.06,163.22,205.9Z"/><path class="cls-4" d="M272.1,340.79c-4.2,6.18-8.21,15.77-12.93,15.77-6.81,0-12.13-19.93-18.68-20.86-6.71-1-17.4,16.65-23.77,14.79s-6-22.52-12-25.29-21.36,11.07-27,7.45.66-23.26-4.4-27.65-23.6,4.63-28-.44,7.17-22.12,3.54-27.77-23.94-2.16-26.75-8.29,13.13-19.16,11.23-25.64S111,234,110,227.33c-.93-6.54,18-14.62,18-21.43s-19-14.88-18-21.43c1-6.72,21.43-9.15,23.3-15.52s-14-19.59-11.23-25.65,23.13-2.67,26.75-8.28-7.92-22.72-3.54-27.78,22.93,4,28-.43-1.26-24,4.4-27.65,20.86,10.25,27,7.44,5.55-23.39,12-25.28,17.06,15.74,23.77,14.79c6.55-.94,11.87-20.86,18.68-20.86,4.72,0,8.73,9.58,12.93,15.76a150.73,150.73,0,0,0,0,269.78Z"/><path class="cls-5" d="M202.45,269.05a151,151,0,0,0,21.35,33.62c-4.41,1.66-8.69,3-11.92,1.43-6.95-3.35-6.57-18.41-12.53-23.18s-20.59-1.07-25.38-7.07,2.08-19.37-1.27-26.31-18.07-9.82-19.79-17.39c-1.67-7.33,10.31-16.41,10.31-24.25s-12-16.91-10.31-24.25c1.72-7.57,16.49-10.55,19.79-17.38S169.21,143.92,174,138s19.39-2.3,25.38-7.08,5.58-19.83,12.53-23.18c3.23-1.56,7.51-.22,11.92,1.44a150.82,150.82,0,0,0-21.35,159.91Z"/><circle class="cls-6" cx="259.17" cy="205.9" r="84.88"/><path class="cls-7" d="M343.85,205.9a84.46,84.46,0,0,1-14.66,47.71,84.88,84.88,0,0,1-66.1-132.48A84.86,84.86,0,0,1,343.85,205.9Z"/><path class="cls-8" d="M344.05,205.9a84.65,84.65,0,0,1-5.62,30.43,84.93,84.93,0,0,1-67.61-114.5A84.87,84.87,0,0,1,344.05,205.9Z"/><path class="cls-9" d="M188.62,205.9a150.25,150.25,0,0,0,13.83,63.15,84.88,84.88,0,0,1,0-126.3A150.1,150.1,0,0,0,188.62,205.9Z"/><circle class="cls-10" cx="311.99" cy="185.08" r="14.83"/><circle class="cls-10" cx="295.46" cy="157.9" r="10.93"/><path class="cls-11" d="M289,322.17a55.24,55.24,0,0,0-69.42-53.39,71.1,71.1,0,0,0-140.22,5.58,61.88,61.88,0,0,0,7.56,123.3H289a37.75,37.75,0,0,0,0-75.49Z"/><path class="cls-12" d="M149.86,211.94a70.29,70.29,0,0,1,12,1,71.08,71.08,0,0,0-58.52,61.4,61.88,61.88,0,0,0,7.55,123.29H86.87A61.88,61.88,0,0,1,79.3,274.36,71.11,71.11,0,0,1,149.86,211.94Z"/><path class="cls-11" d="M473.43,271.79a31.81,31.81,0,0,0-39.95-30.73,40.91,40.91,0,0,0-80.69,3.22,35.61,35.61,0,0,0,4.35,71H473.43a21.72,21.72,0,0,0,0-43.44Z"/><path class="cls-12" d="M393.39,208.35a40.59,40.59,0,0,1,6.93.59,40.92,40.92,0,0,0-33.68,35.34,35.61,35.61,0,0,0,4.35,71H357.14a35.61,35.61,0,0,1-4.35-71A40.92,40.92,0,0,1,393.39,208.35Z"/></g></svg>