<svg xmlns="http://www.w3.org/2000/svg" viewBox="0 0 512 512"><defs><style>.cls-1{fill:#7cc8fb;}.cls-2{fill:#d6d7d8;}.cls-3{fill:#c2c3c4;}</style></defs><title>50-Weather-icons</title><g id="BULINE"><circle class="cls-1" cx="256" cy="256" r="256"/></g><g id="Icons"><path class="cls-2" d="M228,139.68h75.68c8.45,0,15.29-3.36,15.29-7.51v-9.33c0-4.15-6.84-7.51-15.29-7.51H211.76c-8.44,0-15.28-3.36-15.28-7.51V98.49c0-4.15,6.84-7.51,15.28-7.51h16.17c8.44,0,15.28-3.36,15.28-7.51V74.14c0-4.14-6.84-7.51-15.28-7.51h-90c-8.44,0-15.29,3.37-15.29,7.51v9.33c0,4.15-6.84,7.51-15.28,7.51H91.2c-8.44,0-15.28,3.36-15.28,7.51v9.33c0,4.15,6.84,7.51,15.28,7.51h0c8.45,0,15.29,3.36,15.29,7.51v9.33c0,4.15,6.85,7.51,15.29,7.51h6.33c8.45,0,15.29,3.36,15.29,7.51v9.33c0,4.15,6.85,7.51,15.29,7.51h38.77c8.44,0,15.29-3.36,15.29-7.51v-9.33C212.75,143,219.59,139.68,228,139.68Z"/><path class="cls-2" d="M335,64.54H290.08c-5,0-9.08,2-9.08,4.46v5.54C281,77,285.06,79,290.08,79h54.59c5,0,9.08,2,9.08,4.46V89c0,2.46-4.07,4.45-9.08,4.45h-9.6c-5,0-9.07,2-9.07,4.46v5.54c0,2.47,4.06,4.46,9.07,4.46H388.5c5,0,9.08-2,9.08-4.46V97.91c0-2.46,4.06-4.46,9.07-4.46h9.6c5,0,9.08-2,9.08-4.45V83.46c0-2.47-4.07-4.46-9.08-4.46h0c-5,0-9.08-2-9.08-4.46V69c0-2.46-4.06-4.46-9.07-4.46h-3.76c-5,0-9.08-2-9.08-4.46V54.54c0-2.46-4.07-4.46-9.08-4.46h-23c-5,0-9.07,2-9.07,4.46v5.54C344.09,62.54,340,64.54,335,64.54Z"/><path class="cls-2" d="M443.67,314.39c-.87,0-1.72,0-2.57.11a52.79,52.79,0,0,0-20.38-27.21c.08-.94.13-1.89.13-2.85a34.52,34.52,0,0,0-34.52-34.52l-.67,0a88.17,88.17,0,0,0,.67-10.85,86.6,86.6,0,0,0-164.58-37.63A68.51,68.51,0,0,0,125.68,250a34.5,34.5,0,0,0-32.05,32.61,52.77,52.77,0,0,0-28.71,31.83,34.52,34.52,0,1,0,23.31,61.65A52.42,52.42,0,0,0,115,383.43c1.7,0,3.37-.09,5-.25A68.47,68.47,0,0,0,232.4,405.37a81.86,81.86,0,0,0,140.14-25.28,52.69,52.69,0,0,0,47.9-5.65,34.52,34.52,0,1,0,23.23-60.05Z"/><path class="cls-3" d="M478.18,349.35a34.52,34.52,0,0,1-57.75,25.52,52.73,52.73,0,0,1-47.89,5.66A81.87,81.87,0,0,1,232.4,405.81,68.49,68.49,0,0,1,120,383.62c-1.65.15-3.33.24-5,.24a52.39,52.39,0,0,1-26.77-7.31A34.51,34.51,0,0,1,34.39,338a34.5,34.5,0,0,0,53.84,15.86A52.4,52.4,0,0,0,115,361.2c1.69,0,3.37-.09,5-.25A68.48,68.48,0,0,0,232.4,383.14a81.86,81.86,0,0,0,140.14-25.28,52.67,52.67,0,0,0,47.89-5.65A34.53,34.53,0,0,0,476.28,338,34.49,34.49,0,0,1,478.18,349.35Z"/><circle class="cls-3" cx="329.33" cy="243.33" r="10.33"/><circle class="cls-3" cx="167.16" cy="301.96" r="10.33"/><circle class="cls-3" cx="295.33" cy="368.2" r="10.33"/><circle class="cls-3" cx="255.33" cy="278" r="10.33"/><circle class="cls-3" cx="389.33" cy="320.5" r="10.33"/><circle class="cls-3" cx="177.49" cy="228.33" r="10.33"/><circle class="cls-3" cx="94.33" cy="333.33" r="10.33"/><circle class="cls-3" cx="285" cy="193.66" r="10.33"/><circle class="cls-3" cx="211.67" cy="357.87" r="10.33"/></g></svg>