<svg xmlns="http://www.w3.org/2000/svg" viewBox="0 0 512 512"><defs><style>.cls-1{fill:#f7bb38;}.cls-2{fill:#7cc8fb;}.cls-3{fill:#41c0e3;}.cls-4{fill:#a4e1fc;}.cls-5{fill:#92d6fc;}.cls-6{fill:#d8d8d8;}.cls-7{fill:#bcbcbc;}.cls-8{fill:none;stroke:#4bbbf9;stroke-linecap:round;stroke-miterlimit:10;stroke-width:10px;}.cls-9{fill:#ededed;}</style></defs><title>50-Weather-icons</title><g id="BULINE"><circle class="cls-1" cx="256" cy="256" r="256"/></g><g id="Icons"><path class="cls-2" d="M204.48,347.25q0,.48,0,.93a16.88,16.88,0,0,1-1.62,6.39h0a17,17,0,0,1-32.37-7.32c0-7.91,12.08-25,15.88-30.16a1.41,1.41,0,0,1,2.26,0c1.31,1.79,3.6,5,6,8.73C199.29,332.94,204.48,342.06,204.48,347.25Z"/><path class="cls-3" d="M190.11,364.06a17.64,17.64,0,0,1-2.64.2,17,17,0,0,1-17-17c0-7.91,12.08-25,15.88-30.16a1.41,1.41,0,0,1,2.26,0c.41.57.93,1.27,1.51,2.09-4.78,6.7-14.37,21-14.37,28.07A17,17,0,0,0,190.11,364.06Z"/><path class="cls-4" d="M202.83,354.57l.06,0-.06,0-.45.15-.45.12-.53.14-.21,0-.32.07-.11,0-.44.07-.1,0-.51.06-.52.05h-.14l-.39,0H198a14.91,14.91,0,0,1-7.45-2L190,353a14.94,14.94,0,0,1-1.45-1.06c-.28-.23-.55-.46-.81-.71l-.25-.26a14.9,14.9,0,0,1-4.39-10.58c0-.13,0-.27,0-.4s0-.23,0-.35a.13.13,0,0,1,0-.06c0-.11,0-.23,0-.34v0c0-.15,0-.31,0-.46l.06-.46c0-.32.1-.62.16-.93,0-.12.05-.24.08-.36s.11-.48.18-.71.05-.16.07-.24.07-.24.11-.36c.1-.3.21-.6.33-.89a1.67,1.67,0,0,1,.08-.2c.06-.13.11-.27.17-.39l.21-.44,0-.06.2-.4a.21.21,0,0,0,0-.06c.07-.14.15-.27.22-.4l0-.05c.07-.13.15-.25.23-.38s.2-.32.31-.47.17-.25.26-.37l0,0,.3-.39.32-.39h0l.34-.38.27-.3.12-.12.31-.3.08-.09.3-.27c.12-.12.25-.23.38-.34l.4-.32.41-.31q.41-.3.84-.57c.14-.09.29-.19.44-.27l.45-.25c.15-.09.3-.16.45-.24h0a14.75,14.75,0,0,1,3.26-1.18c4.65,7.12,9.84,16.24,9.84,21.43q0,.48,0,.93A16.88,16.88,0,0,1,202.83,354.57Z"/><path class="cls-5" d="M204.45,348.18a16.88,16.88,0,0,1-1.62,6.39l-.45.15-.45.12-.53.14-.21,0-.32.07-.11,0-.44.07-.1,0-.51.06-.52.05h-.14l-.39,0H198a14.91,14.91,0,0,1-7.45-2L190,353a16.82,16.82,0,0,1-1.45-1.06c-.28-.23-.55-.47-.81-.71l-.25-.26a14.9,14.9,0,0,1-4.39-10.58c0-.13,0-.27,0-.4s0-.23,0-.35a.13.13,0,0,1,0-.06c0-.11,0-.23,0-.34v0c0-.15,0-.31,0-.46l.06-.46c0-.32.1-.62.16-.93,0-.12.05-.24.08-.36s.11-.48.18-.71.05-.16.07-.24.07-.24.11-.36c.1-.3.21-.6.33-.89a1.67,1.67,0,0,1,.08-.2c.06-.13.11-.27.17-.39l.21-.44,0-.06.2-.4a.21.21,0,0,0,0-.06c.07-.14.15-.27.22-.4l0-.05c.07-.13.15-.25.23-.38s.2-.32.31-.47.17-.25.26-.37l0,0,.3-.39.32-.39h0l.34-.38.27-.3.12-.12.31-.3.08-.09.3-.27c.12-.12.25-.23.38-.34l.4-.32.41-.31q.41-.3.84-.57c.14-.09.29-.19.44-.27l.45-.25c.15-.09.3-.16.45-.24a15,15,0,0,0,13.07,21.19Z"/><path class="cls-2" d="M337.37,347.25q0,.48,0,.93a16.88,16.88,0,0,1-1.62,6.39h0a17,17,0,0,1-32.37-7.32c0-7.91,12.08-25,15.88-30.16a1.41,1.41,0,0,1,2.26,0c1.31,1.79,3.6,5,6,8.73C332.18,332.94,337.37,342.06,337.37,347.25Z"/><path class="cls-3" d="M323,364.06a17.64,17.64,0,0,1-2.64.2,17,17,0,0,1-17-17c0-7.91,12.08-25,15.88-30.16a1.41,1.41,0,0,1,2.26,0l1.51,2.09c-4.78,6.7-14.37,21-14.37,28.07A17,17,0,0,0,323,364.06Z"/><path class="cls-4" d="M335.72,354.57l0,0,0,0-.46.15c-.14,0-.29.09-.44.12l-.53.14-.21,0-.32.07-.11,0-.45.07-.09,0-.51.06-.52.05h-.14l-.39,0h-.62a14.88,14.88,0,0,1-7.45-2l-.62-.38a13.81,13.81,0,0,1-1.45-1.06c-.28-.23-.55-.46-.81-.71l-.26-.26A14.89,14.89,0,0,1,316,340.39c0-.13,0-.27,0-.4s0-.23,0-.35v-.06c0-.11,0-.23,0-.34v0c0-.15,0-.31,0-.46s0-.31.06-.46c0-.32.09-.62.15-.93,0-.12.05-.24.08-.36s.12-.48.19-.71a2.17,2.17,0,0,1,.07-.24c0-.12.07-.24.11-.36.1-.3.21-.6.33-.89a1.67,1.67,0,0,1,.08-.2c.05-.13.11-.27.17-.39l.21-.44,0-.06c.06-.13.13-.27.2-.4l0-.06c.07-.14.14-.27.22-.4l0-.05.23-.38.31-.47.27-.37,0,0,.29-.39.32-.39h0l.33-.38.28-.3.11-.12.31-.3.09-.09.3-.27c.12-.12.25-.23.38-.34l.4-.32.4-.31c.28-.2.56-.39.85-.57l.43-.27.45-.25.46-.24h0a14.4,14.4,0,0,1,3.26-1.18c4.65,7.12,9.84,16.24,9.84,21.43q0,.48,0,.93A16.88,16.88,0,0,1,335.72,354.57Z"/><path class="cls-5" d="M337.34,348.18a16.88,16.88,0,0,1-1.62,6.39l-.46.15c-.14,0-.29.09-.44.12l-.53.14-.21,0-.32.07-.11,0-.45.07-.09,0-.51.06-.52.05h-.14l-.39,0h-.62a14.88,14.88,0,0,1-7.45-2l-.62-.38a15.4,15.4,0,0,1-1.45-1.06c-.28-.23-.55-.47-.81-.71l-.26-.26A14.89,14.89,0,0,1,316,340.39c0-.13,0-.27,0-.4s0-.23,0-.35v-.06c0-.11,0-.23,0-.34v0c0-.15,0-.31,0-.46s0-.31.06-.46c0-.32.09-.62.15-.93,0-.12.05-.24.08-.36s.12-.48.19-.71a2.17,2.17,0,0,1,.07-.24c0-.12.07-.24.11-.36.1-.3.21-.6.33-.89a1.67,1.67,0,0,1,.08-.2c.05-.13.11-.27.17-.39l.21-.44,0-.06c.06-.13.13-.27.2-.4l0-.06c.07-.14.14-.27.22-.4l0-.05.23-.38.31-.47.27-.37,0,0,.29-.39.32-.39h0l.33-.38.28-.3.11-.12.31-.3.09-.09.3-.27c.12-.12.25-.23.38-.34l.4-.32.4-.31c.28-.2.56-.39.85-.57l.43-.27.45-.25.46-.24a14.79,14.79,0,0,0-1.36,6.24A15,15,0,0,0,337.34,348.18Z"/><path class="cls-2" d="M371.39,398.82q0,.46,0,.93a17,17,0,0,1-1.62,6.39h0a17,17,0,0,1-32.37-7.32c0-7.92,12.08-25,15.88-30.16a1.41,1.41,0,0,1,2.26,0c1.31,1.78,3.6,5,6,8.72C366.2,384.51,371.39,393.63,371.39,398.82Z"/><path class="cls-3" d="M357,415.62a16.41,16.41,0,0,1-2.64.21,17,17,0,0,1-17-17c0-7.92,12.08-25,15.88-30.16a1.41,1.41,0,0,1,2.26,0l1.51,2.09c-4.78,6.69-14.37,21-14.37,28.07A17,17,0,0,0,357,415.62Z"/><path class="cls-4" d="M369.74,406.14l.05,0-.05,0-.46.14-.44.13-.53.13-.21,0-.32.06-.11,0-.45.08h-.09l-.51.07-.52.05H366l-.39,0H365a14.88,14.88,0,0,1-7.45-2l-.62-.38a12.52,12.52,0,0,1-1.45-1.06c-.28-.22-.55-.46-.81-.71l-.26-.25A14.91,14.91,0,0,1,350,392c0-.14,0-.27,0-.41s0-.23,0-.35v-.06c0-.11,0-.22,0-.34h0c0-.16,0-.31,0-.46s0-.32.06-.47c0-.31.09-.62.15-.92,0-.12.05-.24.08-.36s.12-.48.19-.72a1.55,1.55,0,0,1,.07-.23c0-.13.07-.25.11-.37.1-.3.21-.6.33-.89a1.67,1.67,0,0,1,.08-.2c.05-.13.11-.26.17-.39l.21-.44,0-.06c.06-.13.13-.26.2-.39a.25.25,0,0,1,0-.07l.22-.4,0-.05.23-.37c.1-.17.21-.32.31-.48l.27-.37,0,0,.29-.39.32-.4h0l.33-.39.28-.3.11-.11.31-.31.09-.09.3-.27.38-.33c.13-.11.26-.22.4-.32l.4-.32c.28-.2.56-.39.85-.57l.43-.27.45-.25.46-.24h0a14.89,14.89,0,0,1,3.26-1.18c4.65,7.13,9.84,16.25,9.84,21.44q0,.46,0,.93A17,17,0,0,1,369.74,406.14Z"/><path class="cls-5" d="M371.36,399.75a17,17,0,0,1-1.62,6.39l-.46.14-.44.13-.53.13-.21,0-.32.06-.11,0-.45.08h-.09l-.51.07-.52.05H366l-.39,0H365a14.88,14.88,0,0,1-7.45-2l-.62-.38a12.52,12.52,0,0,1-1.45-1.06c-.28-.23-.55-.46-.81-.71l-.26-.25A14.91,14.91,0,0,1,350,392c0-.14,0-.27,0-.41s0-.23,0-.35v-.06c0-.11,0-.22,0-.34h0c0-.16,0-.31,0-.46s0-.32.06-.47c0-.31.09-.62.15-.92,0-.12.05-.24.08-.36s.12-.48.19-.72a1.55,1.55,0,0,1,.07-.23c0-.13.07-.25.11-.37.1-.3.21-.6.33-.89a1.67,1.67,0,0,1,.08-.2c.05-.13.11-.26.17-.39l.21-.44,0-.06c.06-.13.13-.26.2-.39a.25.25,0,0,1,0-.07l.22-.4,0-.05.23-.37c.1-.17.21-.32.31-.48l.27-.37,0,0,.29-.39.32-.4h0l.33-.39.28-.3.11-.11.31-.31.09-.09.3-.27.38-.33c.13-.11.26-.22.4-.32l.4-.32c.28-.2.56-.39.85-.57l.43-.27.45-.25.46-.24a14.79,14.79,0,0,0-1.36,6.24A15,15,0,0,0,371.36,399.75Z"/><path class="cls-2" d="M165.81,398.82c0,.31,0,.62,0,.93a17,17,0,0,1-1.63,6.39h0a17,17,0,0,1-32.37-7.32c0-7.92,12.09-25,15.88-30.16a1.41,1.41,0,0,1,2.26,0c1.31,1.78,3.6,5,6,8.72C160.62,384.51,165.81,393.63,165.81,398.82Z"/><path class="cls-3" d="M151.44,415.62a16.41,16.41,0,0,1-2.64.21,17,17,0,0,1-17-17c0-7.92,12.09-25,15.88-30.16a1.41,1.41,0,0,1,2.26,0c.42.56.93,1.27,1.51,2.09-4.78,6.69-14.37,21-14.37,28.07A17,17,0,0,0,151.44,415.62Z"/><path class="cls-4" d="M164.16,406.14l.06,0-.06,0-.45.14-.45.13-.53.13-.21,0-.31.06-.12,0-.44.08h-.1l-.51.07-.52.05h-.14l-.39,0h-.62a14.91,14.91,0,0,1-7.45-2l-.62-.38a13.44,13.44,0,0,1-1.45-1.06,9,9,0,0,1-.8-.71,3.13,3.13,0,0,1-.26-.25A14.92,14.92,0,0,1,144.4,392c0-.14,0-.27,0-.41s0-.23,0-.35a.13.13,0,0,1,0-.06c0-.11,0-.22,0-.34h0c0-.16,0-.31,0-.46l.06-.47c0-.31.1-.62.16-.92,0-.12,0-.24.08-.36s.11-.48.18-.72c0-.08.05-.16.07-.23s.07-.25.11-.37c.1-.3.21-.6.33-.89a1.67,1.67,0,0,0,.08-.2c.06-.13.12-.26.17-.39l.21-.44,0-.06.2-.39a.25.25,0,0,0,0-.07c.07-.13.15-.26.22-.4l0-.05c.07-.13.15-.25.23-.37s.2-.32.31-.48.17-.25.26-.37l0,0,.3-.39c.1-.14.21-.27.32-.4h0q.15-.19.33-.39l.28-.3a1.14,1.14,0,0,1,.11-.11l.31-.31.09-.09.29-.27.38-.33c.13-.11.26-.22.4-.32l.41-.32q.41-.3.84-.57l.44-.27.45-.25.45-.24h0a15.17,15.17,0,0,1,3.27-1.18c4.64,7.13,9.83,16.25,9.83,21.44,0,.31,0,.62,0,.93A17,17,0,0,1,164.16,406.14Z"/><path class="cls-5" d="M165.79,399.75a17,17,0,0,1-1.63,6.39l-.45.14-.45.13-.53.13-.21,0-.31.06-.12,0-.44.08h-.1l-.51.07-.52.05h-.14l-.39,0h-.62a14.91,14.91,0,0,1-7.45-2l-.62-.38a13.44,13.44,0,0,1-1.45-1.06c-.28-.23-.55-.46-.8-.71l-.26-.25A14.92,14.92,0,0,1,144.4,392c0-.14,0-.27,0-.41s0-.23,0-.35a.13.13,0,0,1,0-.06c0-.11,0-.22,0-.34h0c0-.16,0-.31,0-.46l.06-.47c0-.31.1-.62.16-.92,0-.12,0-.24.08-.36s.11-.48.18-.72c0-.08.05-.16.07-.23s.07-.25.11-.37c.1-.3.21-.6.33-.89a1.67,1.67,0,0,0,.08-.2c.06-.13.12-.26.17-.39l.21-.44,0-.06.2-.39a.25.25,0,0,0,0-.07c.07-.13.15-.26.22-.4l0-.05c.07-.13.15-.25.23-.37s.2-.32.31-.48.17-.25.26-.37l0,0,.3-.39c.1-.14.21-.27.32-.4h0q.15-.19.33-.39l.28-.3a1.14,1.14,0,0,1,.11-.11l.31-.31.09-.09.29-.27.38-.33c.13-.11.26-.22.4-.32l.41-.32q.41-.3.84-.57l.44-.27.45-.25.45-.24a15,15,0,0,0,13.08,21.2Z"/><path class="cls-2" d="M269.83,459.83c0,.31,0,.63,0,.93a16.89,16.89,0,0,1-1.63,6.39h0a17,17,0,0,1-32.37-7.32c0-7.91,12.09-25,15.88-30.16a1.41,1.41,0,0,1,2.26,0c1.31,1.79,3.6,5,6.05,8.73C264.64,445.52,269.83,454.64,269.83,459.83Z"/><path class="cls-3" d="M255.46,476.64a17.64,17.64,0,0,1-2.64.2,17,17,0,0,1-17-17c0-7.91,12.09-25,15.88-30.16a1.41,1.41,0,0,1,2.26,0c.41.57.93,1.27,1.51,2.09-4.78,6.7-14.37,21-14.37,28.07A17,17,0,0,0,255.46,476.64Z"/><path class="cls-4" d="M268.18,467.15l.06,0-.06,0-.45.15-.45.12-.53.14-.21,0-.31.07-.12,0-.44.07-.1,0-.51.06-.52.05h-.14l-.39,0h-.62a14.81,14.81,0,0,1-7.45-2l-.62-.37a14.94,14.94,0,0,1-1.45-1.06c-.28-.23-.55-.47-.8-.72a2.06,2.06,0,0,1-.26-.25A14.9,14.9,0,0,1,248.42,453c0-.13,0-.27,0-.4s0-.23,0-.35a.13.13,0,0,1,0-.06c0-.11,0-.23,0-.34v0c0-.15,0-.31,0-.46l.06-.47c0-.31.1-.61.16-.92,0-.12.05-.24.08-.36s.11-.48.18-.72c0-.07,0-.15.07-.23s.07-.24.11-.36c.1-.3.21-.6.33-.89a1.67,1.67,0,0,0,.08-.2c.06-.13.12-.27.17-.4l.21-.43,0-.06.2-.4a.21.21,0,0,0,0-.06c.07-.14.15-.27.22-.4l0-.06.23-.37c.1-.16.2-.32.31-.47s.17-.25.26-.38l0,0,.3-.39.32-.39h0c.1-.13.21-.25.33-.38l.28-.3.11-.12.31-.3.09-.09.29-.27.38-.34.4-.32.41-.31a9.53,9.53,0,0,1,.84-.57c.15-.1.29-.19.44-.27l.45-.25a4.92,4.92,0,0,1,.45-.24h0A14.65,14.65,0,0,1,260,438.4c4.64,7.12,9.83,16.24,9.83,21.43,0,.31,0,.63,0,.93A16.89,16.89,0,0,1,268.18,467.15Z"/><path class="cls-5" d="M269.81,460.76a16.89,16.89,0,0,1-1.63,6.39l-.45.15-.45.12-.53.14-.21,0-.31.07-.12,0-.44.07-.1,0-.51.06-.52.05h-.14l-.39,0h-.62a14.81,14.81,0,0,1-7.45-2l-.62-.37a16.82,16.82,0,0,1-1.45-1.06c-.28-.23-.55-.47-.8-.72a3.07,3.07,0,0,1-.26-.25A14.9,14.9,0,0,1,248.42,453c0-.13,0-.27,0-.4s0-.23,0-.35a.13.13,0,0,1,0-.06c0-.11,0-.23,0-.34v0c0-.15,0-.31,0-.46l.06-.47c0-.31.1-.61.16-.92,0-.12.05-.24.08-.36s.11-.48.18-.72c0-.07,0-.15.07-.23s.07-.24.11-.36c.1-.3.21-.6.33-.89a1.67,1.67,0,0,0,.08-.2c.06-.13.12-.27.17-.4l.21-.43,0-.06.2-.4a.21.21,0,0,0,0-.06c.07-.14.15-.27.22-.4l0-.06.23-.37c.1-.16.2-.32.31-.47s.17-.25.26-.38l0,0,.3-.39.32-.39h0c.1-.13.21-.25.33-.38l.28-.3.11-.12.31-.3.09-.09.29-.27.38-.34.4-.32.41-.31q.4-.3.84-.57c.15-.1.29-.19.44-.27l.45-.25a4.92,4.92,0,0,1,.45-.24,15,15,0,0,0,13.08,21.19Z"/><path class="cls-6" d="M421.73,196.59a80.76,80.76,0,0,0-101.47-78,103.92,103.92,0,0,0-204.95,8.17,90.44,90.44,0,0,0,11,180.21H421.73a55.17,55.17,0,0,0,0-110.34Z"/><path class="cls-7" d="M218.43,35.47A102,102,0,0,1,236,37a103.91,103.91,0,0,0-85.54,89.75,90.44,90.44,0,0,0,11,180.2H126.36a90.44,90.44,0,0,1-11.06-180.2A103.93,103.93,0,0,1,218.43,35.47Z"/><line class="cls-8" x1="122.9" y1="321.43" x2="106.99" y2="350.93"/><line class="cls-8" x1="260.78" y1="321.43" x2="244.87" y2="350.93"/><line class="cls-8" x1="393.66" y1="321.43" x2="377.76" y2="350.93"/><line class="cls-8" x1="228.1" y1="377.21" x2="212.19" y2="406.71"/><line class="cls-8" x1="294.54" y1="377.21" x2="278.64" y2="406.71"/><line class="cls-8" x1="195.42" y1="432.98" x2="179.52" y2="462.48"/><line class="cls-8" x1="328.31" y1="432.98" x2="312.41" y2="462.48"/><circle class="cls-9" cx="371.69" cy="201" r="27.79"/><circle class="cls-9" cx="329.54" cy="158.85" r="20.49"/></g></svg>