<svg xmlns="http://www.w3.org/2000/svg" viewBox="0 0 512 512"><defs><style>.cls-1{fill:#934cf5;}.cls-2{fill:#8be7fc;}.cls-3{fill:#65d9e5;}.cls-4{fill:#caecff;}.cls-5{fill:#a9e6fc;}.cls-6{fill:#fffefd;}</style></defs><title>50-Weather-icons</title><g id="BULINE"><circle class="cls-1" cx="256" cy="256" r="256"/></g><g id="Icons"><path class="cls-2" d="M302.48,119.77A48.35,48.35,0,0,0,241.72,73,62.23,62.23,0,0,0,119,77.92a54.17,54.17,0,0,0,6.62,107.93H302.48a33,33,0,0,0,0-66.08Z"/><path class="cls-3" d="M180.73,23.28a61,61,0,0,1,10.54.9,62.23,62.23,0,0,0-51.22,53.75,54.16,54.16,0,0,0,6.61,107.91H125.6A54.16,54.16,0,0,1,119,77.93,62.23,62.23,0,0,1,180.73,23.28Z"/><path class="cls-4" d="M464.38,165.65a41.62,41.62,0,0,0-52.29-40.22,53.55,53.55,0,0,0-105.62,4.21,46.61,46.61,0,0,0,5.69,92.87H464.38a28.43,28.43,0,1,0,0-56.86Z"/><path class="cls-5" d="M359.61,82.61a53.21,53.21,0,0,1,9.07.77,53.57,53.57,0,0,0-44.08,46.26,46.61,46.61,0,0,0,5.68,92.87H312.16a46.61,46.61,0,0,1-5.7-92.87A53.57,53.57,0,0,1,359.61,82.61Z"/><path class="cls-6" d="M372.05,274.67a73.92,73.92,0,0,0-92.87-71.43A95.11,95.11,0,0,0,91.6,210.71a82.78,82.78,0,0,0,10.12,164.94H372.05a50.49,50.49,0,1,0,0-101Z"/><path class="cls-4" d="M186,127.2a94,94,0,0,1,16.12,1.37,95.12,95.12,0,0,0-78.29,82.14,82.78,82.78,0,0,0,10.1,164.94H101.71A82.78,82.78,0,0,1,91.59,210.71,95.12,95.12,0,0,1,186,127.2Z"/><path class="cls-6" d="M179.11,418a2.81,2.81,0,0,0-2.82-2.8H173.8l2.78-5.76a2.43,2.43,0,1,0-4.38-2.12l-3.81,7.88h-14a10.1,10.1,0,0,0-1.1-2.46l.55-.55,1.79-1.78L160,406l6.73,2.35a2,2,0,0,0,1.31-3.75l-4.92-1.71,1.44-1.45a2.29,2.29,0,0,0-3.24-3.24l-1.44,1.44-1.72-4.92a2,2,0,1,0-3.74,1.31l2.34,6.73-4.38,4.38-1.93,1.93-.41.41a9.8,9.8,0,0,0-2.45-1.09v-14l7.87-3.8a2.43,2.43,0,1,0-2.12-4.38L147.62,389v-2.5a2.81,2.81,0,0,0-5.62,0V389l-5.76-2.78a2.43,2.43,0,1,0-2.11,4.38l7.87,3.8v14c-.23.06-.46.14-.69.22a9.69,9.69,0,0,0-1.77.87l-2.33-2.34-4.38-4.38,2.34-6.73a2,2,0,1,0-3.75-1.31l-1.71,4.92-1.44-1.44a2.29,2.29,0,0,0-3.25,3.24l1.44,1.45-4.91,1.71a2,2,0,1,0,1.3,3.75l6.73-2.35L134,410.4l2.34,2.34a9.71,9.71,0,0,0-1.09,2.46h-14l-3.8-7.88a2.43,2.43,0,1,0-4.38,2.12l2.78,5.76h-2.5a2.81,2.81,0,1,0,0,5.62h2.5L113,426.57a2.43,2.43,0,1,0,4.38,2.11l3.8-7.86h14a9.8,9.8,0,0,0,1.09,2.45L134,425.61,129.58,430l-6.73-2.35a2,2,0,1,0-1.3,3.75l4.91,1.71L125,434.55a2.29,2.29,0,0,0,3.25,3.24l1.44-1.44,1.71,4.92a2,2,0,1,0,3.75-1.31l-2.34-6.73,4.38-4.38,2.33-2.34a9.46,9.46,0,0,0,1.81.88h0l.64.2v14l-7.87,3.8a2.43,2.43,0,1,0,2.11,4.38L142,447v2.5a2.81,2.81,0,0,0,5.62,0V447l5.75,2.78a2.43,2.43,0,1,0,2.12-4.38l-7.87-3.8v-14a9.8,9.8,0,0,0,2.45-1.09l2.34,2.34,4.38,4.38L154.45,440a2,2,0,1,0,3.74,1.31l1.72-4.92,1.44,1.44a2.29,2.29,0,0,0,3.24-3.24l-1.44-1.45,4.92-1.71a2,2,0,1,0-1.31-3.75L160,430l-4.38-4.39-1.79-1.78-.55-.55a10.2,10.2,0,0,0,1.1-2.45h14l3.81,7.86a2.43,2.43,0,1,0,4.38-2.11l-2.78-5.75h2.49A2.82,2.82,0,0,0,179.11,418Zm-34.3,5.45a5.45,5.45,0,1,1,5.44-5.45A5.45,5.45,0,0,1,144.81,423.45Z"/><path class="cls-6" d="M268.69,454.42a2.81,2.81,0,0,0-2.82-2.81h-2.49l2.78-5.75a2.43,2.43,0,1,0-4.38-2.12L258,451.61H244a10.2,10.2,0,0,0-1.1-2.45l.55-.55,1.79-1.78,4.38-4.39,6.73,2.35a2,2,0,0,0,1.31-3.75l-4.92-1.71,1.44-1.45a2.29,2.29,0,1,0-3.24-3.24l-1.44,1.44-1.72-4.92a2,2,0,1,0-3.74,1.31l2.34,6.73L242,443.58l-1.93,1.93-.41.41a9.8,9.8,0,0,0-2.45-1.09v-14l7.87-3.8a2.43,2.43,0,1,0-2.12-4.38l-5.75,2.78v-2.5a2.81,2.81,0,0,0-5.62,0v2.5l-5.76-2.78a2.43,2.43,0,1,0-2.11,4.38l7.87,3.8v14c-.23.06-.46.14-.69.22a9.69,9.69,0,0,0-1.77.87l-2.33-2.34-4.38-4.38,2.34-6.73a2,2,0,0,0-3.75-1.31l-1.71,4.92-1.44-1.44a2.29,2.29,0,1,0-3.25,3.24l1.45,1.45L211.13,441a2,2,0,1,0,1.3,3.75l6.73-2.35,4.38,4.38,2.34,2.34a9.8,9.8,0,0,0-1.09,2.45h-14l-3.8-7.87a2.43,2.43,0,1,0-4.38,2.12l2.78,5.75h-2.5a2.82,2.82,0,0,0,0,5.63h2.5L202.62,463A2.43,2.43,0,1,0,207,465.1l3.8-7.86h14a9.8,9.8,0,0,0,1.09,2.45L223.54,462l-4.38,4.38-6.73-2.35a2,2,0,1,0-1.3,3.75l4.92,1.71L214.6,471a2.3,2.3,0,0,0,3.25,3.25l1.44-1.44,1.71,4.92a2,2,0,1,0,3.75-1.31l-2.34-6.73,4.38-4.38,2.33-2.34a10.09,10.09,0,0,0,1.81.88h0c.21.08.42.15.64.21v14l-7.87,3.8a2.43,2.43,0,1,0,2.11,4.38l5.76-2.78v2.5a2.81,2.81,0,0,0,5.62,0v-2.5l5.75,2.78a2.43,2.43,0,0,0,2.12-4.38L237.2,478V464a9.8,9.8,0,0,0,2.45-1.09l2.34,2.33,4.38,4.39L244,476.38a2,2,0,1,0,3.74,1.31l1.72-4.92,1.44,1.44a2.29,2.29,0,1,0,3.24-3.25l-1.44-1.44,4.92-1.71a2,2,0,1,0-1.31-3.75l-6.73,2.35L245.23,462l-1.79-1.78-.55-.55a10.2,10.2,0,0,0,1.1-2.45h14l3.81,7.86a2.43,2.43,0,1,0,4.38-2.11l-2.78-5.75h2.49A2.82,2.82,0,0,0,268.69,454.42Zm-34.3,5.45a5.45,5.45,0,1,1,5.44-5.45A5.45,5.45,0,0,1,234.39,459.87Z"/><path class="cls-6" d="M357.6,418a2.8,2.8,0,0,0-2.81-2.8h-2.5l2.78-5.76a2.43,2.43,0,1,0-4.38-2.12l-3.8,7.88h-14a9.71,9.71,0,0,0-1.09-2.46l.55-.55,1.79-1.78,4.38-4.39,6.73,2.35a2,2,0,0,0,1.31-3.75l-4.93-1.71,1.45-1.45a2.29,2.29,0,0,0-3.25-3.24l-1.44,1.44-1.71-4.92a2,2,0,1,0-3.75,1.31l2.35,6.73-4.38,4.38L329,409.09l-.4.41a9.8,9.8,0,0,0-2.45-1.09v-14l7.86-3.8a2.43,2.43,0,1,0-2.11-4.38L326.12,389v-2.5a2.82,2.82,0,0,0-5.63,0V389l-5.75-2.78a2.43,2.43,0,0,0-2.12,4.38l7.87,3.8v14c-.23.06-.46.14-.68.22a9.69,9.69,0,0,0-1.77.87l-2.34-2.34-4.38-4.38,2.35-6.73a2,2,0,0,0-3.75-1.31l-1.71,4.92-1.45-1.44a2.29,2.29,0,0,0-3.24,3.24l1.44,1.45L300,404.62a2,2,0,1,0,1.31,3.75l6.73-2.35,4.38,4.38,2.34,2.34a9.71,9.71,0,0,0-1.09,2.46h-14l-3.81-7.88a2.43,2.43,0,1,0-4.37,2.12l2.78,5.76h-2.5a2.81,2.81,0,1,0,0,5.62h2.5l-2.78,5.75a2.43,2.43,0,1,0,4.37,2.11l3.81-7.86h14a9.8,9.8,0,0,0,1.09,2.45l-2.34,2.34L308.08,430l-6.73-2.35a2,2,0,1,0-1.31,3.75L305,433.1l-1.44,1.45a2.29,2.29,0,0,0,3.24,3.24l1.45-1.44,1.71,4.92a2,2,0,0,0,3.75-1.31l-2.35-6.73,4.39-4.38,2.33-2.34a9.18,9.18,0,0,0,1.81.88h0l.64.2v14l-7.87,3.8a2.43,2.43,0,0,0,2.12,4.38l5.75-2.78v2.5a2.82,2.82,0,0,0,5.63,0V447l5.75,2.78a2.43,2.43,0,1,0,2.11-4.38l-7.86-3.8v-14a9.8,9.8,0,0,0,2.45-1.09l2.33,2.34,4.39,4.38L332.94,440a2,2,0,1,0,3.75,1.31l1.71-4.92,1.44,1.44a2.29,2.29,0,0,0,3.25-3.24l-1.45-1.45,4.93-1.71a2,2,0,0,0-1.31-3.75L338.53,430l-4.39-4.39-1.78-1.78-.55-.55a9.8,9.8,0,0,0,1.09-2.45h14l3.8,7.86a2.43,2.43,0,1,0,4.38-2.11l-2.78-5.75h2.5A2.81,2.81,0,0,0,357.6,418Zm-34.3,5.45a5.45,5.45,0,1,1,5.45-5.45A5.44,5.44,0,0,1,323.3,423.45Z"/><circle class="cls-6" cx="426.37" cy="251.42" r="10.83"/><circle class="cls-6" cx="203.48" cy="402.42" r="10.83"/><circle class="cls-6" cx="373.37" cy="447.42" r="10.83"/><circle class="cls-6" cx="71.43" cy="402.42" r="10.83"/><circle class="cls-6" cx="448.03" cy="347.14" r="10.83"/></g></svg>