<svg xmlns="http://www.w3.org/2000/svg" viewBox="0 0 512 512"><defs><style>.cls-1{fill:#f55b4b;}.cls-2{fill:#f6d372;}.cls-3{fill:#f7bb38;}.cls-4{fill:#366fca;}.cls-5{fill:#3163aa;}</style></defs><title>50-Weather-icons</title><g id="BULINE"><circle class="cls-1" cx="256" cy="256" r="256"/></g><g id="Icons"><path class="cls-2" d="M269.26,174l-29.51,86.71a2.24,2.24,0,0,0,2.45,2.94l43-6.39a2.25,2.25,0,0,1,2.41,3.06l-30.58,75.2a2.24,2.24,0,0,0,3.82,2.25L337.78,242a2.24,2.24,0,0,0-1.69-3.65l-63.61-1.61a2.25,2.25,0,0,1-2.18-2.37l3.32-59.5A2.24,2.24,0,0,0,269.26,174Z"/><path class="cls-3" d="M249.49,262.57l-7.29,1.08a2.24,2.24,0,0,1-2.45-2.93L269.26,174a2.24,2.24,0,0,1,4.36.85l-.44,8L247,259.63A2.24,2.24,0,0,0,249.49,262.57Z"/><path class="cls-3" d="M294.92,259.24l-29.78,73.2-4.27,5.33a2.24,2.24,0,0,1-3.82-2.25l30.58-75.2a2.24,2.24,0,0,0-2.41-3.06l7.29-1.08A2.24,2.24,0,0,1,294.92,259.24Z"/><path class="cls-2" d="M110,212.64l-5.12,152.77a3.74,3.74,0,0,0,5.34,3.51l65.61-31.05a3.74,3.74,0,0,1,5.33,3.72L168.72,476.5a3.74,3.74,0,0,0,7.2,1.73L252.32,288a3.73,3.73,0,0,0-4.46-5L145.49,311.22a3.73,3.73,0,0,1-4.62-2.72l-23.53-96.62A3.74,3.74,0,0,0,110,212.64Z"/><path class="cls-3" d="M121.31,363.66l-11.12,5.26a3.73,3.73,0,0,1-5.33-3.5L110,212.64a3.74,3.74,0,0,1,7.37-.75l3.16,13L116,360.16A3.74,3.74,0,0,0,121.31,363.66Z"/><path class="cls-3" d="M192.25,336.33,180.16,467.65l-4.24,10.59a3.74,3.74,0,0,1-7.2-1.75l12.41-134.9a3.74,3.74,0,0,0-5.33-3.72l11.12-5.26A3.74,3.74,0,0,1,192.25,336.33Z"/><path class="cls-2" d="M394.77,227.09,343.53,324.2a2.69,2.69,0,0,0,2.35,3.94l52.14.53a2.68,2.68,0,0,1,2.27,4.07L350,416a2.68,2.68,0,0,0,4.1,3.38l109.06-98.95a2.69,2.69,0,0,0-1.32-4.63l-75-13.87a2.69,2.69,0,0,1-2.13-3.21l15.11-69.81A2.69,2.69,0,0,0,394.77,227.09Z"/><path class="cls-3" d="M354.72,328.23l-8.84-.09a2.68,2.68,0,0,1-2.35-3.93l51.24-97.12a2.69,2.69,0,0,1,5,1.83l-2,9.37-45.38,86A2.69,2.69,0,0,0,354.72,328.23Z"/><path class="cls-3" d="M409.13,332.83l-49,81.06-6.06,5.51A2.69,2.69,0,0,1,350,416l50.34-83.27a2.68,2.68,0,0,0-2.28-4.07l8.84.08A2.7,2.7,0,0,1,409.13,332.83Z"/><path class="cls-4" d="M301,85.74A67.91,67.91,0,0,0,195.86,62.92a87.36,87.36,0,0,0-152.8,79.9,76,76,0,0,0,73.2,133L340.7,169.58A46.38,46.38,0,1,0,301,85.74Z"/><path class="cls-5" d="M88.6,36.41a87.23,87.23,0,0,1,13.92-5.2,87.37,87.37,0,0,0-32.73,99,76,76,0,0,0,73.19,133l-26.72,12.64A76,76,0,0,1,43.05,142.83,87.37,87.37,0,0,1,88.6,36.41Z"/><path class="cls-4" d="M480,190.51a53.78,53.78,0,0,0-46.1-71.65,69.16,69.16,0,0,0-130.27-40.8,60.19,60.19,0,0,0-33.45,115.41l185.09,66.18A36.71,36.71,0,1,0,480,190.51Z"/><path class="cls-5" d="M388.66,44a68.76,68.76,0,0,1,10.69,4.88,69.16,69.16,0,0,0-73.71,37.08,60.19,60.19,0,0,0-33.46,115.4l-22-7.88A60.19,60.19,0,0,1,303.59,78.05,69.16,69.16,0,0,1,388.66,44Z"/></g></svg>